<mxfile host="app.diagrams.net" agent="Mozilla/5.0 (Macintosh; Intel Mac OS X 10.15; rv:130.0) Gecko/20100101 Firefox/130.0" version="24.7.17">
  <diagram name="Page-1" id="uYGn4XBIxd0lreIwzSP2">
    <mxGraphModel dx="1766" dy="1034" grid="1" gridSize="10" guides="1" tooltips="1" connect="1" arrows="1" fold="1" page="1" pageScale="10" pageWidth="850" pageHeight="1100" math="0" shadow="0">
      <root>
        <mxCell id="0" />
        <mxCell id="1" parent="0" />
        <mxCell id="jdSJZeFeb5opf8wOyfkM-15" value="Manual Score Generation" style="swimlane;childLayout=stackLayout;resizeParent=1;resizeParentMax=0;startSize=20;html=1;" parent="1" vertex="1">
          <mxGeometry x="360" y="40" width="1080" height="1050" as="geometry" />
        </mxCell>
        <mxCell id="jdSJZeFeb5opf8wOyfkM-16" value="Score Parameters" style="swimlane;startSize=20;html=1;" parent="jdSJZeFeb5opf8wOyfkM-15" vertex="1">
          <mxGeometry y="20" width="480" height="1030" as="geometry" />
        </mxCell>
        <mxCell id="1W4XdpAK7zGUUeNpvS1S-4" style="edgeStyle=orthogonalEdgeStyle;rounded=0;orthogonalLoop=1;jettySize=auto;html=1;exitX=0.5;exitY=1;exitDx=0;exitDy=0;endArrow=none;endFill=0;" edge="1" parent="jdSJZeFeb5opf8wOyfkM-16" source="jdSJZeFeb5opf8wOyfkM-29">
          <mxGeometry relative="1" as="geometry">
            <mxPoint x="240" y="250" as="targetPoint" />
            <Array as="points">
              <mxPoint x="80" y="240" />
              <mxPoint x="240" y="240" />
            </Array>
          </mxGeometry>
        </mxCell>
        <mxCell id="jdSJZeFeb5opf8wOyfkM-29" value="Set key signature" style="rounded=1;whiteSpace=wrap;html=1;arcSize=40;" parent="jdSJZeFeb5opf8wOyfkM-16" vertex="1">
          <mxGeometry x="20" y="180" width="120" height="40" as="geometry" />
        </mxCell>
        <mxCell id="1W4XdpAK7zGUUeNpvS1S-5" style="edgeStyle=orthogonalEdgeStyle;rounded=0;orthogonalLoop=1;jettySize=auto;html=1;endArrow=none;endFill=0;" edge="1" parent="jdSJZeFeb5opf8wOyfkM-16" source="jdSJZeFeb5opf8wOyfkM-33">
          <mxGeometry relative="1" as="geometry">
            <mxPoint x="240" y="240" as="targetPoint" />
            <Array as="points">
              <mxPoint x="400" y="240" />
            </Array>
          </mxGeometry>
        </mxCell>
        <mxCell id="jdSJZeFeb5opf8wOyfkM-33" value="Set time signature" style="rounded=1;whiteSpace=wrap;html=1;arcSize=40;" parent="jdSJZeFeb5opf8wOyfkM-16" vertex="1">
          <mxGeometry x="340" y="180" width="120" height="40" as="geometry" />
        </mxCell>
        <mxCell id="jdSJZeFeb5opf8wOyfkM-51" style="edgeStyle=orthogonalEdgeStyle;rounded=0;orthogonalLoop=1;jettySize=auto;html=1;entryX=0.5;entryY=0;entryDx=0;entryDy=0;" parent="jdSJZeFeb5opf8wOyfkM-16" source="jdSJZeFeb5opf8wOyfkM-44" target="jdSJZeFeb5opf8wOyfkM-29" edge="1">
          <mxGeometry relative="1" as="geometry" />
        </mxCell>
        <mxCell id="jdSJZeFeb5opf8wOyfkM-52" style="edgeStyle=orthogonalEdgeStyle;rounded=0;orthogonalLoop=1;jettySize=auto;html=1;" parent="jdSJZeFeb5opf8wOyfkM-16" source="jdSJZeFeb5opf8wOyfkM-44" target="jdSJZeFeb5opf8wOyfkM-33" edge="1">
          <mxGeometry relative="1" as="geometry" />
        </mxCell>
        <mxCell id="jdSJZeFeb5opf8wOyfkM-44" value="" style="shape=line;html=1;strokeWidth=6;" parent="jdSJZeFeb5opf8wOyfkM-16" vertex="1">
          <mxGeometry x="140" y="130" width="200" height="10" as="geometry" />
        </mxCell>
        <mxCell id="jdSJZeFeb5opf8wOyfkM-49" value="" style="ellipse;html=1;shape=startState;" parent="jdSJZeFeb5opf8wOyfkM-16" vertex="1">
          <mxGeometry x="225" y="40" width="30" height="30" as="geometry" />
        </mxCell>
        <mxCell id="jdSJZeFeb5opf8wOyfkM-55" value="" style="shape=line;html=1;strokeWidth=6;" parent="jdSJZeFeb5opf8wOyfkM-16" vertex="1">
          <mxGeometry x="140" y="270" width="200" height="10" as="geometry" />
        </mxCell>
        <mxCell id="QaTty768ZXxovHtDTIpO-13" style="edgeStyle=orthogonalEdgeStyle;rounded=0;orthogonalLoop=1;jettySize=auto;html=1;entryX=0.5;entryY=0.186;entryDx=0;entryDy=0;entryPerimeter=0;" parent="jdSJZeFeb5opf8wOyfkM-16" source="jdSJZeFeb5opf8wOyfkM-49" target="jdSJZeFeb5opf8wOyfkM-44" edge="1">
          <mxGeometry relative="1" as="geometry" />
        </mxCell>
        <mxCell id="1W4XdpAK7zGUUeNpvS1S-2" style="edgeStyle=orthogonalEdgeStyle;rounded=0;orthogonalLoop=1;jettySize=auto;html=1;exitX=0.5;exitY=0;exitDx=0;exitDy=0;endArrow=classic;endFill=1;entryX=0.5;entryY=0;entryDx=0;entryDy=0;" edge="1" parent="jdSJZeFeb5opf8wOyfkM-16" target="1W4XdpAK7zGUUeNpvS1S-1">
          <mxGeometry relative="1" as="geometry">
            <mxPoint x="240" y="160" as="sourcePoint" />
          </mxGeometry>
        </mxCell>
        <mxCell id="1W4XdpAK7zGUUeNpvS1S-3" style="edgeStyle=orthogonalEdgeStyle;rounded=0;orthogonalLoop=1;jettySize=auto;html=1;exitX=0.5;exitY=1;exitDx=0;exitDy=0;" edge="1" parent="jdSJZeFeb5opf8wOyfkM-16" source="1W4XdpAK7zGUUeNpvS1S-1" target="jdSJZeFeb5opf8wOyfkM-55">
          <mxGeometry relative="1" as="geometry" />
        </mxCell>
        <mxCell id="1W4XdpAK7zGUUeNpvS1S-1" value="Set clef" style="rounded=1;whiteSpace=wrap;html=1;arcSize=40;" vertex="1" parent="jdSJZeFeb5opf8wOyfkM-16">
          <mxGeometry x="180" y="180" width="120" height="40" as="geometry" />
        </mxCell>
        <mxCell id="jdSJZeFeb5opf8wOyfkM-17" value="Notation" style="swimlane;startSize=20;html=1;fillColor=default;strokeColor=#000000;" parent="jdSJZeFeb5opf8wOyfkM-15" vertex="1">
          <mxGeometry x="480" y="20" width="200" height="1030" as="geometry" />
        </mxCell>
        <mxCell id="jdSJZeFeb5opf8wOyfkM-63" style="edgeStyle=orthogonalEdgeStyle;rounded=0;orthogonalLoop=1;jettySize=auto;html=1;entryX=0.5;entryY=0;entryDx=0;entryDy=0;" parent="jdSJZeFeb5opf8wOyfkM-17" source="jdSJZeFeb5opf8wOyfkM-35" target="jdSJZeFeb5opf8wOyfkM-59" edge="1">
          <mxGeometry relative="1" as="geometry" />
        </mxCell>
        <mxCell id="jdSJZeFeb5opf8wOyfkM-35" value="&lt;div&gt;Add/remove&amp;nbsp;&lt;/div&gt;&lt;div&gt;&amp;nbsp;note/rest&lt;/div&gt;" style="rounded=1;whiteSpace=wrap;html=1;arcSize=40;" parent="jdSJZeFeb5opf8wOyfkM-17" vertex="1">
          <mxGeometry x="40" y="360" width="120" height="40" as="geometry" />
        </mxCell>
        <mxCell id="jdSJZeFeb5opf8wOyfkM-70" style="edgeStyle=orthogonalEdgeStyle;rounded=0;orthogonalLoop=1;jettySize=auto;html=1;entryX=0;entryY=0.5;entryDx=0;entryDy=0;" parent="jdSJZeFeb5opf8wOyfkM-17" source="jdSJZeFeb5opf8wOyfkM-59" target="jdSJZeFeb5opf8wOyfkM-35" edge="1">
          <mxGeometry relative="1" as="geometry">
            <Array as="points">
              <mxPoint x="100" y="580" />
              <mxPoint x="20" y="580" />
              <mxPoint x="20" y="380" />
            </Array>
          </mxGeometry>
        </mxCell>
        <mxCell id="jdSJZeFeb5opf8wOyfkM-72" value="[more]" style="edgeLabel;html=1;align=center;verticalAlign=middle;resizable=0;points=[];" parent="jdSJZeFeb5opf8wOyfkM-70" vertex="1" connectable="0">
          <mxGeometry x="-0.7668" y="6" relative="1" as="geometry">
            <mxPoint x="-6" y="-14" as="offset" />
          </mxGeometry>
        </mxCell>
        <mxCell id="jdSJZeFeb5opf8wOyfkM-59" value="" style="rhombus;whiteSpace=wrap;html=1;" parent="jdSJZeFeb5opf8wOyfkM-17" vertex="1">
          <mxGeometry x="60" y="470" width="80" height="40" as="geometry" />
        </mxCell>
        <mxCell id="jdSJZeFeb5opf8wOyfkM-28" value="Dynamics/Articulation" style="swimlane;startSize=20;html=1;" parent="jdSJZeFeb5opf8wOyfkM-15" vertex="1">
          <mxGeometry x="680" y="20" width="200" height="1030" as="geometry" />
        </mxCell>
        <mxCell id="jdSJZeFeb5opf8wOyfkM-37" value="&lt;div&gt;Add/remove&amp;nbsp;&lt;/div&gt;&lt;div&gt;&amp;nbsp;dynamic and/or articulation&lt;/div&gt;" style="rounded=1;whiteSpace=wrap;html=1;arcSize=40;" parent="jdSJZeFeb5opf8wOyfkM-28" vertex="1">
          <mxGeometry x="40" y="570" width="120" height="70" as="geometry" />
        </mxCell>
        <mxCell id="jdSJZeFeb5opf8wOyfkM-73" style="edgeStyle=orthogonalEdgeStyle;rounded=0;orthogonalLoop=1;jettySize=auto;html=1;entryX=0.5;entryY=0;entryDx=0;entryDy=0;" parent="jdSJZeFeb5opf8wOyfkM-28" target="jdSJZeFeb5opf8wOyfkM-76" edge="1">
          <mxGeometry relative="1" as="geometry">
            <mxPoint x="100" y="640" as="sourcePoint" />
          </mxGeometry>
        </mxCell>
        <mxCell id="jdSJZeFeb5opf8wOyfkM-74" style="edgeStyle=orthogonalEdgeStyle;rounded=0;orthogonalLoop=1;jettySize=auto;html=1;entryX=0;entryY=0.5;entryDx=0;entryDy=0;" parent="jdSJZeFeb5opf8wOyfkM-28" source="jdSJZeFeb5opf8wOyfkM-76" edge="1">
          <mxGeometry relative="1" as="geometry">
            <mxPoint x="40" y="620" as="targetPoint" />
            <Array as="points">
              <mxPoint x="100" y="820" />
              <mxPoint x="20" y="820" />
              <mxPoint x="20" y="620" />
            </Array>
          </mxGeometry>
        </mxCell>
        <mxCell id="jdSJZeFeb5opf8wOyfkM-75" value="[more]" style="edgeLabel;html=1;align=center;verticalAlign=middle;resizable=0;points=[];" parent="jdSJZeFeb5opf8wOyfkM-74" vertex="1" connectable="0">
          <mxGeometry x="-0.7668" y="6" relative="1" as="geometry">
            <mxPoint x="-6" y="-14" as="offset" />
          </mxGeometry>
        </mxCell>
        <mxCell id="jdSJZeFeb5opf8wOyfkM-76" value="" style="rhombus;whiteSpace=wrap;html=1;" parent="jdSJZeFeb5opf8wOyfkM-28" vertex="1">
          <mxGeometry x="60" y="710" width="80" height="40" as="geometry" />
        </mxCell>
        <mxCell id="jdSJZeFeb5opf8wOyfkM-62" value="" style="edgeStyle=orthogonalEdgeStyle;rounded=0;orthogonalLoop=1;jettySize=auto;html=1;exitX=1;exitY=0.5;exitDx=0;exitDy=0;" parent="jdSJZeFeb5opf8wOyfkM-15" source="jdSJZeFeb5opf8wOyfkM-59" target="jdSJZeFeb5opf8wOyfkM-37" edge="1">
          <mxGeometry relative="1" as="geometry">
            <Array as="points">
              <mxPoint x="620" y="510" />
            </Array>
          </mxGeometry>
        </mxCell>
        <mxCell id="jdSJZeFeb5opf8wOyfkM-67" value="[else]" style="edgeLabel;html=1;align=center;verticalAlign=middle;resizable=0;points=[];" parent="jdSJZeFeb5opf8wOyfkM-62" vertex="1" connectable="0">
          <mxGeometry x="0.1655" y="-6" relative="1" as="geometry">
            <mxPoint x="-115" y="-6" as="offset" />
          </mxGeometry>
        </mxCell>
        <mxCell id="QaTty768ZXxovHtDTIpO-3" value="" style="edgeStyle=orthogonalEdgeStyle;rounded=0;orthogonalLoop=1;jettySize=auto;html=1;exitX=1;exitY=0.5;exitDx=0;exitDy=0;entryX=0.5;entryY=0;entryDx=0;entryDy=0;" parent="jdSJZeFeb5opf8wOyfkM-15" source="jdSJZeFeb5opf8wOyfkM-76" target="QaTty768ZXxovHtDTIpO-5" edge="1">
          <mxGeometry relative="1" as="geometry">
            <mxPoint x="690" y="640" as="sourcePoint" />
            <mxPoint x="819.9999999999995" y="860" as="targetPoint" />
            <Array as="points">
              <mxPoint x="980" y="750" />
            </Array>
          </mxGeometry>
        </mxCell>
        <mxCell id="QaTty768ZXxovHtDTIpO-4" value="[else]" style="edgeLabel;html=1;align=center;verticalAlign=middle;resizable=0;points=[];" parent="QaTty768ZXxovHtDTIpO-3" vertex="1" connectable="0">
          <mxGeometry x="0.1655" y="-6" relative="1" as="geometry">
            <mxPoint x="-124" y="-3" as="offset" />
          </mxGeometry>
        </mxCell>
        <mxCell id="jdSJZeFeb5opf8wOyfkM-18" value="Finalization" style="swimlane;startSize=20;html=1;" parent="jdSJZeFeb5opf8wOyfkM-15" vertex="1">
          <mxGeometry x="880" y="20" width="200" height="1030" as="geometry" />
        </mxCell>
        <mxCell id="QaTty768ZXxovHtDTIpO-11" value="[else]" style="edgeStyle=orthogonalEdgeStyle;rounded=0;orthogonalLoop=1;jettySize=auto;html=1;" parent="jdSJZeFeb5opf8wOyfkM-18" source="QaTty768ZXxovHtDTIpO-5" target="QaTty768ZXxovHtDTIpO-10" edge="1">
          <mxGeometry relative="1" as="geometry" />
        </mxCell>
        <mxCell id="QaTty768ZXxovHtDTIpO-5" value="" style="rhombus;whiteSpace=wrap;html=1;" parent="jdSJZeFeb5opf8wOyfkM-18" vertex="1">
          <mxGeometry x="60" y="850" width="80" height="40" as="geometry" />
        </mxCell>
        <mxCell id="QaTty768ZXxovHtDTIpO-10" value="" style="ellipse;html=1;shape=endState;" parent="jdSJZeFeb5opf8wOyfkM-18" vertex="1">
          <mxGeometry x="85" y="970" width="30" height="30" as="geometry" />
        </mxCell>
        <mxCell id="1W4XdpAK7zGUUeNpvS1S-6" style="edgeStyle=orthogonalEdgeStyle;rounded=0;orthogonalLoop=1;jettySize=auto;html=1;entryX=0.5;entryY=0;entryDx=0;entryDy=0;" edge="1" parent="jdSJZeFeb5opf8wOyfkM-15" source="jdSJZeFeb5opf8wOyfkM-55" target="jdSJZeFeb5opf8wOyfkM-35">
          <mxGeometry relative="1" as="geometry">
            <Array as="points">
              <mxPoint x="240" y="340" />
              <mxPoint x="580" y="340" />
            </Array>
          </mxGeometry>
        </mxCell>
        <mxCell id="QaTty768ZXxovHtDTIpO-12" style="edgeStyle=orthogonalEdgeStyle;rounded=0;orthogonalLoop=1;jettySize=auto;html=1;exitX=1;exitY=0.5;exitDx=0;exitDy=0;endArrow=none;endFill=0;entryX=0.51;entryY=0.4;entryDx=0;entryDy=0;entryPerimeter=0;" parent="jdSJZeFeb5opf8wOyfkM-15" source="QaTty768ZXxovHtDTIpO-5" target="jdSJZeFeb5opf8wOyfkM-44" edge="1">
          <mxGeometry relative="1" as="geometry">
            <mxPoint x="330" y="90" as="targetPoint" />
            <Array as="points">
              <mxPoint x="1050" y="890" />
              <mxPoint x="1050" y="120" />
              <mxPoint x="240" y="120" />
              <mxPoint x="240" y="154" />
            </Array>
            <mxPoint x="1049.8" y="890.0000000000002" as="sourcePoint" />
          </mxGeometry>
        </mxCell>
        <mxCell id="QaTty768ZXxovHtDTIpO-14" value="[edit]" style="edgeLabel;html=1;align=center;verticalAlign=middle;resizable=0;points=[];" parent="QaTty768ZXxovHtDTIpO-12" vertex="1" connectable="0">
          <mxGeometry x="-0.9724" y="-2" relative="1" as="geometry">
            <mxPoint x="7" y="-32" as="offset" />
          </mxGeometry>
        </mxCell>
      </root>
    </mxGraphModel>
  </diagram>
</mxfile>
